# xmcd
#
# Track frame offsets:
#  150
#  4422
#  21662
#  38840
#  55225
#  69237
#  85347
#  103705
#  118990
#  136400
#  151200
#  171100
#  188520
#  210252
#  228569
#  241911
#  260619
#  280708
#
# Disc length: 3980 seconds
#
# Revision: 0
# Processed by: cddbd v1.5.2PL0 Copyright (c) Steve Scherf et al.
# Submitted via: AltoMP3_Maker 3.0
#
DISCID=f60f8a12
DTITLE=Chris Brown - The Debut Album
DYEAR=1900
DGENRE=
TTITLE0=Intro
TTITLE1=Run it
TTITLE2=Yo (excuse me miss)
TTITLE3=Young Love
TTITLE4=Gimme That
TTITLE5=Ya man aint me
TTITLE6=Winner
TTITLE7=Aint no way (you won't love me)
TTITLE8=What's my name
TTITLE9=Is this Love
TTITLE10=Poppin
TTITLE11=Just Fine
TTITLE12=Say Goodbye
TTITLE13=Run It ! Remix
TTITLE14=So Glad
TTITLE15=Seen the Light
TTITLE16=Thank You
TTITLE17=Gimme That Remix
EXTD=
EXTT0=
EXTT1=
EXTT2=
EXTT3=
EXTT4=
EXTT5=
EXTT6=
EXTT7=
EXTT8=
EXTT9=
EXTT10=
EXTT11=
EXTT12=
EXTT13=
EXTT14=
EXTT15=
EXTT16=
EXTT17=
PLAYORDER=
